<?xml version="1.0" encoding="UTF-8"?>
<!DOCTYPE svg PUBLIC "-//W3C//DTD SVG 1.1//EN" "http://www.w3.org/Graphics/SVG/1.1/DTD/svg11.dtd">
<!-- Creator: CorelDRAW X7 -->
<svg xmlns="http://www.w3.org/2000/svg" xml:space="preserve" width="1256px" height="544px" version="1.1" style="shape-rendering:geometricPrecision; text-rendering:geometricPrecision; image-rendering:optimizeQuality; fill-rule:evenodd; clip-rule:evenodd"
viewBox="0 0 512 222"
 xmlns:xlink="http://www.w3.org/1999/xlink">
 <defs>
  <style type="text/css">
   <![CDATA[
    .fil0 {fill:#201E1E}
    .fil1 {fill:#FEFEFE;fill-rule:nonzero}
   ]]>
  </style>
 </defs>
 <g id="Capa_x0020_1">
  <metadata id="CorelCorpID_0Corel-Layer"/>
  <rect class="fil0" y="11" width="509" height="207"/>
  <path class="fil0" d="M325 11l21 0c-9,2 -16,6 -23,10 -15,9 -22,20 -22,32 0,23 19,37 56,43 23,-32 59,-54 107,-65 -17,-9 -35,-16 -53,-20l18 0c13,5 26,12 39,20 5,-1 11,-2 17,-2 12,0 21,2 24,7l0 4c-1,-6 -9,-8 -21,-8 -5,0 -10,0 -17,1 11,8 20,17 28,27 6,-5 9,-10 10,-14l0 5c-2,4 -5,7 -9,11 4,7 8,13 9,20l0 14c0,0 0,0 0,0 -1,0 -2,-2 -2,-5 0,-9 -3,-18 -9,-28 -14,10 -32,19 -55,26 -23,7 -44,11 -61,11 -3,0 -5,0 -7,0 -15,20 -22,40 -22,59 0,13 4,24 12,31 8,8 19,12 33,12 26,0 50,-13 71,-38 12,-16 18,-30 18,-44 0,-7 -2,-13 -6,-17 -5,-4 -10,-6 -18,-6 -11,0 -23,6 -37,18 -13,12 -19,23 -19,34 0,1 0,1 0,1 1,0 1,0 1,0 3,-2 5,-4 7,-4 5,0 7,3 7,8 0,7 -3,10 -10,10 -6,0 -9,-3 -9,-11 0,-13 7,-26 20,-39 14,-13 27,-19 41,-19 18,0 27,9 27,29 0,20 -10,38 -29,55 -20,17 -41,25 -64,25 -17,0 -31,-6 -42,-17 -11,-11 -16,-24 -16,-40 0,-16 5,-32 16,-49 -40,-7 -60,-23 -60,-47 0,-15 8,-27 22,-36 2,-2 5,-3 7,-4zm-108 207l-9 0c4,-1 7,-2 10,-3l2 -1c0,0 1,1 1,1 0,1 -2,2 -4,3zm-39 0l-8 0c-9,-3 -17,-9 -22,-17 -15,-3 -26,-9 -34,-16 -8,-8 -12,-17 -12,-26 0,-14 6,-26 17,-38 11,-12 26,-21 44,-27 12,-3 24,-6 39,-8 -11,-4 -16,-11 -16,-20 0,-12 8,-23 23,-31 -22,-5 -39,-7 -53,-7 -28,0 -51,6 -70,20 -19,14 -29,30 -29,50 0,8 2,16 7,22 6,6 12,9 19,9 5,0 7,-1 7,-2 0,-1 -1,-1 -3,-1 -4,0 -7,-2 -7,-7 0,-2 1,-5 3,-6 3,-2 5,-3 8,-3 6,0 9,3 9,8 0,4 -2,7 -5,10 -3,3 -7,4 -12,4 -9,0 -16,-4 -22,-12 -6,-7 -9,-17 -9,-27 0,-17 7,-32 21,-46 17,-16 41,-24 71,-24 17,0 40,3 68,10 13,-6 28,-9 45,-9 12,0 23,2 32,5 9,4 13,8 13,12 0,7 -6,10 -17,10 -9,0 -30,-4 -64,-13 -15,9 -23,21 -23,34 0,7 2,11 7,14 6,-1 11,-1 14,-1 10,0 15,1 15,3 0,2 -3,3 -8,3 -6,0 -13,-1 -21,-3 -10,1 -22,5 -36,12 -34,16 -52,38 -52,64 0,17 10,29 29,33 -4,-5 -5,-12 -5,-19 0,-18 9,-35 27,-51 19,-15 39,-23 61,-23 11,0 19,3 25,8 6,5 9,12 9,20 0,18 -10,34 -30,49 -20,14 -42,21 -67,21 -5,0 -9,0 -14,0 7,8 15,14 26,16zm121 -177c0,-3 -4,-7 -11,-9 -8,-3 -16,-4 -26,-4 -14,0 -26,2 -38,8 25,8 46,12 62,12 9,0 13,-2 13,-7zm-39 90c0,-7 -3,-12 -8,-17 -5,-4 -12,-6 -20,-6 -20,0 -39,8 -58,25 -19,16 -28,33 -28,50 0,5 1,10 4,15 6,1 11,2 15,2 22,0 43,-8 64,-23 21,-15 31,-30 31,-46zm237 -70c-8,-10 -17,-19 -29,-27 -17,5 -34,13 -51,24 -16,12 -30,25 -40,40 19,0 40,-4 64,-11 23,-7 42,-16 56,-26z"/>
  <path class="fil1" d="M302 41c0,7 -6,10 -17,10 -9,0 -30,-4 -64,-13 -15,9 -23,21 -23,34 0,7 2,11 7,14 6,-1 11,-1 14,-1 10,0 15,1 15,3 0,2 -3,3 -8,3 -6,0 -13,-1 -21,-3 -10,1 -22,5 -36,12 -34,16 -52,38 -52,64 0,17 10,29 29,33 -4,-5 -5,-12 -5,-19 0,-18 9,-35 27,-51 19,-15 39,-23 61,-23 11,0 19,3 25,8 6,5 9,12 9,20 0,18 -10,34 -30,49 -20,14 -42,21 -67,21 -5,0 -9,0 -14,0 9,11 22,17 40,17 11,0 19,-1 26,-4l2 -1c0,0 1,1 1,1 0,2 -4,3 -11,5 -6,1 -13,2 -18,2 -20,0 -34,-7 -44,-21 -15,-3 -26,-9 -34,-16 -8,-8 -12,-17 -12,-26 0,-14 6,-26 17,-38 11,-12 26,-21 44,-27 12,-3 24,-6 39,-8 -11,-4 -16,-11 -16,-20 0,-12 8,-23 23,-31 -22,-5 -39,-7 -53,-7 -28,0 -51,6 -70,20 -19,14 -29,30 -29,50 0,8 2,16 7,22 6,6 12,9 19,9 5,0 7,-1 7,-2 0,-1 -1,-1 -3,-1 -4,0 -7,-2 -7,-7 0,-2 1,-5 3,-6 3,-2 5,-3 8,-3 6,0 9,3 9,8 0,4 -2,7 -5,10 -3,3 -7,4 -12,4 -9,0 -16,-4 -22,-12 -6,-7 -9,-17 -9,-27 0,-17 7,-32 21,-46 17,-16 41,-24 71,-24 17,0 40,3 68,10 13,-6 28,-9 45,-9 12,0 23,2 32,5 9,4 13,8 13,12zm-3 0c0,-3 -4,-7 -11,-9 -8,-3 -16,-4 -26,-4 -14,0 -26,2 -38,8 25,8 46,12 62,12 9,0 13,-2 13,-7zm-39 90c0,-7 -3,-12 -8,-17 -5,-4 -12,-6 -20,-6 -20,0 -39,8 -58,25 -19,16 -28,33 -28,50 0,5 1,10 4,15 6,1 11,2 15,2 22,0 43,-8 64,-23 21,-15 31,-30 31,-46zm252 -88c0,6 -4,12 -12,19 7,11 11,21 11,31 0,2 -1,3 -2,3 -1,0 -2,-2 -2,-5 0,-9 -3,-18 -9,-28 -14,10 -32,19 -55,26 -23,7 -44,11 -61,11 -3,0 -5,0 -7,0 -15,20 -22,40 -22,59 0,13 4,24 12,31 8,8 19,12 33,12 26,0 50,-13 71,-38 12,-16 18,-30 18,-44 0,-7 -2,-13 -6,-17 -5,-4 -10,-6 -18,-6 -11,0 -23,6 -37,18 -13,12 -19,23 -19,34 0,1 0,1 0,1 1,0 1,0 1,0 3,-2 5,-4 7,-4 5,0 7,3 7,8 0,7 -3,10 -10,10 -6,0 -9,-3 -9,-11 0,-13 7,-26 20,-39 14,-13 27,-19 41,-19 18,0 27,9 27,29 0,20 -10,38 -29,55 -20,17 -41,25 -64,25 -17,0 -31,-6 -42,-17 -11,-11 -16,-24 -16,-40 0,-16 5,-32 16,-49 -40,-7 -60,-23 -60,-47 0,-15 8,-27 22,-36 15,-10 34,-15 56,-15 31,0 62,10 94,31 5,-1 11,-2 17,-2 18,0 27,5 27,14zm-2 0c0,-8 -7,-11 -22,-11 -5,0 -10,0 -17,1 11,8 20,17 28,27 7,-7 11,-12 11,-17zm-13 18c-8,-10 -17,-19 -29,-27 -17,5 -34,13 -51,24 -16,12 -30,25 -40,40 19,0 40,-4 64,-11 23,-7 42,-16 56,-26zm-33 -30c-28,-16 -58,-24 -90,-24 -19,0 -36,5 -51,14 -15,9 -22,20 -22,32 0,23 19,37 56,43 23,-32 59,-54 107,-65z"/>
 </g>
</svg>
